<?xml version="1.0" encoding="UTF-8"?>
<svg width="512" height="512" viewBox="0 0 512 512" fill="none" xmlns="http://www.w3.org/2000/svg">
    <path d="M256 48C141.13 48 48 141.13 48 256C48 350.13 114.13 429.13 202.13 456.13C215.13 458.13 219.13 450.13 219.13 443.13C219.13 436.13 219.13 421.13 219.13 402.13C154.13 415.13 141.13 373.13 141.13 373.13C131.13 347.13 116.13 340.13 116.13 340.13C95.13 326.13 117.13 326.13 117.13 326.13C140.13 327.13 151.13 349.13 151.13 349.13C171.13 382.13 207.13 373.13 220.13 367.13C222.13 353.13 228.13 343.13 234.13 337.13C183.13 331.13 129.13 312.13 129.13 229.13C129.13 205.13 137.13 185.13 152.13 169.13C149.13 163.13 142.13 141.13 155.13 111.13C155.13 111.13 175.13 105.13 219.13 134.13C231.13 129.13 244.13 127.13 256.13 127.13C268.13 127.13 281.13 129.13 293.13 134.13C337.13 105.13 357.13 111.13 357.13 111.13C370.13 141.13 363.13 163.13 360.13 169.13C375.13 185.13 383.13 205.13 383.13 229.13C383.13 312.13 329.13 331.13 278.13 337.13C286.13 344.13 293.13 358.13 293.13 379.13C293.13 410.13 293.13 434.13 293.13 443.13C293.13 450.13 297.13 458.13 310.13 456.13C398.13 429.13 464.13 350.13 464.13 256.13C464.13 141.13 371 48 256 48Z" fill="currentColor"/>
</svg>
